# xmcd
# 
# Track frame offsets:
#     150
#     19367
#     37142
#     60392
# 
# Disc length: 1162
# 
# Revision: 0
# Processed by: cddbd v1.5.2PL0 Copyright (c) Steve Scherf et al.
# Submitted via: BonkEnc v1.0.8
# 
DISCID=30048804
DTITLE=Infinity - Tonight
DYEAR=1994
DGENRE=R'n'B
TTITLE0=Tonight (Radio Vocal)
TTITLE1=Tonight (Radio Edit)
TTITLE2=Tonight (Lick My Dub Mix)
TTITLE3=Tonight (Blunted In My Jeep Mix)
EXTD=
EXTT0=
EXTT1=
EXTT2=
EXTT3=
PLAYORDER=
